# Rhino

g object_1
v 5.497652530670166 9.962771415710449 1
v 3.205926179885864 9.962771415710449 1
v 0.9141994714736938 9.962771415710449 1
v 5.497652530670166 8.927521705627441 1
v 5.497652530670166 9.445146560668945 1
v 2.190006017684937 7.694671154022217 1
v 3.225256443023682 7.694671154022217 1
v 4.260507106781006 7.694671154022217 1
v 2.190006017684937 8.734217643737793 1
v 2.190006017684937 8.214444160461426 1
v 3.830942392349243 8.734217643737793 1
v 3.01047420501709 8.734217643737793 1
v 1.940858602523804 8.961886405944824 1
v 2.995439529418945 8.961886405944824 1
v 4.050020217895508 8.961886405944824 1
v 1.940858602523804 5.375022888183594 1
v 1.940858602523804 7.168454647064209 1
v 0.8970169425010681 4.331181049346924 1
v 1.418937802314758 4.853102207183838 1
v 4.879079818725586 8.31109619140625 1
v 0.908471941947937 8.085575103759766 1
v 0.9027444124221802 6.208377838134766 1
v 5.497652530670166 9.962771415710449 0
v 3.205926179885864 9.962771415710449 0
v 0.9141994714736938 9.962771415710449 0
v 5.497652530670166 8.927521705627441 0
v 5.497652530670166 9.445146560668945 0
v 2.190006017684937 7.694671154022217 0
v 3.225256443023682 7.694671154022217 0
v 4.260507106781006 7.694671154022217 0
v 2.190006017684937 8.734217643737793 0
v 2.190006017684937 8.214444160461426 0
v 3.830942392349243 8.734217643737793 0
v 3.01047420501709 8.734217643737793 0
v 1.940858602523804 8.961886405944824 0
v 2.995439529418945 8.961886405944824 0
v 4.050020217895508 8.961886405944824 0
v 1.940858602523804 5.375022888183594 0
v 1.940858602523804 7.168454647064209 0
v 0.8970169425010681 4.331181049346924 0
v 1.418937802314758 4.853102207183838 0
v 4.879079818725586 8.31109619140625 0
v 0.908471941947937 8.085575103759766 0
v 0.9027444124221802 6.208377838134766 0
v 0.8970169425010681 4.331181049346924 0
v 0.8970169425010681 4.331181049346924 1
v 1.940858602523804 5.375022888183594 0
v 1.940858602523804 5.375022888183594 1
v 1.418937802314758 4.853102207183838 0
v 1.418937802314758 4.853102207183838 1
v 1.940858602523804 5.375022888183594 0
v 1.940858602523804 5.375022888183594 1
v 1.940858602523804 8.961886405944824 0
v 1.940858602523804 8.961886405944824 1
v 1.940858602523804 7.168454647064209 1
v 1.940858602523804 7.168454647064209 0
v 1.940858602523804 8.961886405944824 0
v 1.940858602523804 8.961886405944824 1
v 4.050020217895508 8.961886405944824 0
v 4.050020217895508 8.961886405944824 1
v 2.995439529418945 8.961886405944824 1
v 2.995439529418945 8.961886405944824 0
v 4.050020217895508 8.961886405944824 0.5
v 4.050020217895508 8.961886405944824 0
v 4.050020217895508 8.961886405944824 1
v 3.830942392349243 8.734217643737793 0
v 3.830942392349243 8.734217643737793 1
v 4.050020217895508 8.961886405944824 0.5
v 3.830942392349243 8.734217643737793 0.5
v 3.830942392349243 8.734217643737793 0
v 3.830942392349243 8.734217643737793 1
v 2.190006017684937 8.734217643737793 0
v 2.190006017684937 8.734217643737793 1
v 3.01047420501709 8.734217643737793 1
v 3.01047420501709 8.734217643737793 0
v 3.830942392349243 8.734217643737793 0.5
v 2.190006017684937 8.734217643737793 0.5
v 2.190006017684937 8.734217643737793 0
v 2.190006017684937 8.734217643737793 1
v 2.190006017684937 7.694671154022217 0
v 2.190006017684937 7.694671154022217 1
v 2.190006017684937 8.214444160461426 1
v 2.190006017684937 8.214444160461426 0
v 2.190006017684937 8.734217643737793 0.5
v 2.190006017684937 7.694671154022217 0.5
v 2.190006017684937 7.694671154022217 0
v 2.190006017684937 7.694671154022217 1
v 4.260507106781006 7.694671154022217 0
v 4.260507106781006 7.694671154022217 1
v 3.225256443023682 7.694671154022217 1
v 3.225256443023682 7.694671154022217 0
v 2.190006017684937 7.694671154022217 0.5
v 4.260507106781006 7.694671154022217 0
v 4.260507106781006 7.694671154022217 1
v 5.497652530670166 8.927521705627441 0
v 5.497652530670166 8.927521705627441 1
v 4.879079818725586 8.31109619140625 0
v 5.497652530670166 8.927521705627441 0.5
v 4.879079818725586 8.31109619140625 1
v 5.497652530670166 8.927521705627441 0
v 5.497652530670166 8.927521705627441 1
v 5.497652530670166 9.962771415710449 0
v 5.497652530670166 9.962771415710449 1
v 5.497652530670166 9.445146560668945 1
v 5.497652530670166 9.445146560668945 0
v 5.497652530670166 8.927521705627441 0.5
v 5.497652530670166 9.962771415710449 0.5
v 5.497652530670166 9.962771415710449 0
v 5.497652530670166 9.962771415710449 1
v 0.9141994714736938 9.962771415710449 0
v 0.9141994714736938 9.962771415710449 1
v 3.205926179885864 9.962771415710449 1
v 3.205926179885864 9.962771415710449 0
v 5.497652530670166 9.962771415710449 0.5
v 0.9141994714736938 9.962771415710449 0
v 0.9141994714736938 9.962771415710449 1
v 0.8970169425010681 4.331181049346924 0
v 0.8970169425010681 4.331181049346924 1
v 0.908471941947937 8.085575103759766 0
v 0.9027444124221802 6.208377838134766 0
v 0.9027444124221802 6.208377838134766 1
v 0.908471941947937 8.085575103759766 1
vt 0.994614839553833 0.4864515066146851
vt 0.7993330359458923 0.4864515066146851
vt 0.6040511727333069 0.4864515066146851
vt 0.994614839553833 0.3979129493236542
vt 0.994614839553833 0.4421822428703308
vt 0.7127647995948792 0.2924748659133911
vt 0.8009802103042603 0.2924748659133911
vt 0.8891956210136414 0.2924748659133911
vt 0.7127647995948792 0.3813808262348175
vt 0.7127647995948792 0.3369278311729431
vt 0.8525916934013367 0.3813808262348175
vt 0.7826782464981079 0.3813808262348175
vt 0.6915345191955566 0.4008519649505615
vt 0.7813971042633057 0.4008519649505615
vt 0.8712596893310547 0.4008519649505615
vt 0.6915345191955566 0.09408968687057495
vt 0.6915345191955566 0.2474708408117294
vt 0.6025870442390442 0.004816351924091578
vt 0.6470608115196228 0.0494530200958252
vt 0.9419052600860596 0.3451938927173615
vt 0.603563129901886 0.3259064555168152
vt 0.6030750870704651 0.1653614044189453
vt 0.004816365893930197 0.3959481120109558
vt 0.004816365893930197 0.2006662786006927
vt 0.004816365893930197 0.005384434945881367
vt 0.09335491806268692 0.3959481120109558
vt 0.04908562824130058 0.3959481120109558
vt 0.1987929940223694 0.114098034799099
vt 0.1987929940223694 0.2023134529590607
vt 0.1987929940223694 0.2905288636684418
vt 0.1098870411515236 0.114098034799099
vt 0.1543400138616562 0.114098034799099
vt 0.1098870411515236 0.2539249658584595
vt 0.1098870411515236 0.1840115040540695
vt 0.09041590243577957 0.09286776930093765
vt 0.09041590243577957 0.1827303618192673
vt 0.09041590243577957 0.2725929617881775
vt 0.3971781730651855 0.09286776930093765
vt 0.2437970191240311 0.09286776930093765
vt 0.4864515066146851 0.003920278511941433
vt 0.4418148398399353 0.04839402437210083
vt 0.1460739523172379 0.34323850274086
vt 0.1653614044189453 0.004896382801234722
vt 0.3259064555168152 0.004408330656588078
vt 0.5116780996322632 0.5998688340187073
vt 0.4276190996170044 0.5998688340187073
vt 0.5116780996322632 0.7261204123497009
vt 0.4276190996170044 0.7261204123497009
vt 0.5116780996322632 0.6629946231842041
vt 0.4276190996170044 0.6629946231842041
vt 0.2551066279411316 0.4013332426548004
vt 0.171047642827034 0.4013332426548004
vt 0.2551066279411316 0.7080955505371094
vt 0.171047642827034 0.7080955505371094
vt 0.171047642827034 0.5547143816947937
vt 0.2551066279411316 0.5547143816947937
vt 0.169582799077034 0.6195043325424194
vt 0.085523821413517 0.6195043325424194
vt 0.169582799077034 0.7998878955841064
vt 0.085523821413517 0.7998878955841064
vt 0.085523821413517 0.7096961140632629
vt 0.169582799077034 0.7096961140632629
vt 0.1275533139705658 0.7998878955841064
vt 0.342095285654068 0.4013332426548004
vt 0.342095285654068 0.4868570566177368
vt 0.3691170811653137 0.4013332426548004
vt 0.3691170811653137 0.4868570566177368
vt 0.342095285654068 0.4440951645374298
vt 0.3691170811653137 0.4440951645374298
vt 0.084058977663517 0.4013332426548004
vt 0 0.4013332426548004
vt 0.084058977663517 0.54167240858078
vt 0 0.54167240858078
vt 0 0.471502810716629
vt 0.084058977663517 0.471502810716629
vt 0.0420294888317585 0.4013332426548004
vt 0.0420294888317585 0.54167240858078
vt 0.4261542558670044 0.5998688340187073
vt 0.342095285654068 0.5998688340187073
vt 0.4261542558670044 0.6887748241424561
vt 0.342095285654068 0.6887748241424561
vt 0.342095285654068 0.6443217992782593
vt 0.4261542558670044 0.6443217992782593
vt 0.3841247856616974 0.5998688340187073
vt 0.3841247856616974 0.6887748241424561
vt 0.084058977663517 0.6195043325424194
vt 0 0.6195043325424194
vt 0.084058977663517 0.7965814471244812
vt 0 0.7965814471244812
vt 0 0.7080428600311279
vt 0.084058977663517 0.7080428600311279
vt 0.0420294888317585 0.6195043325424194
vt 0.169582799077034 0.4013332426548004
vt 0.085523821413517 0.4013332426548004
vt 0.169582799077034 0.5507051944732666
vt 0.085523821413517 0.5507051944732666
vt 0.169582799077034 0.4760192036628723
vt 0.1275533139705658 0.5507051944732666
vt 0.085523821413517 0.4760192036628723
vt 0.4686870276927948 0.4013332426548004
vt 0.3831632137298584 0.4013332426548004
vt 0.4686870276927948 0.4898718297481537
vt 0.3831632137298584 0.4898718297481537
vt 0.3831632137298584 0.4456025362014771
vt 0.4686870276927948 0.4456025362014771
vt 0.4259251058101654 0.4013332426548004
vt 0.4259251058101654 0.4898718297481537
vt 0.340630441904068 0.4013332426548004
vt 0.2565714716911316 0.4013332426548004
vt 0.340630441904068 0.7933276891708374
vt 0.2565714716911316 0.7933276891708374
vt 0.2565714716911316 0.5973304510116577
vt 0.340630441904068 0.5973304510116577
vt 0.298600971698761 0.4013332426548004
vt 0.597201943397522 0.4013332426548004
vt 0.5131429433822632 0.4013332426548004
vt 0.597201943397522 0.8815057873725891
vt 0.5131429433822632 0.8815057873725891
vt 0.597201943397522 0.56139075756073
vt 0.597201943397522 0.7214483022689819
vt 0.5131429433822632 0.7214483022689819
vt 0.5131429433822632 0.56139075756073
vn 0 0 1
vn 0 0 1
vn 0 0 1
vn 0 0 1
vn 0 0 1
vn 0 0 1
vn 0 0 1
vn 0 0 1
vn 0 0 1
vn 0 0 1
vn 0 0 1
vn 0 0 1
vn 0 0 1
vn 0 0 1
vn 0 0 1
vn 0 0 1
vn 0 0 1
vn 0 0 1
vn 0 0 1
vn 0 0 1
vn 0 0 1
vn 0 0 1
vn 0 0 -1
vn 0 0 -1
vn 0 0 -1
vn 0 0 -1
vn 0 0 -1
vn 0 0 -1
vn 0 0 -1
vn 0 0 -1
vn 0 0 -1
vn 0 0 -1
vn 0 0 -1
vn 0 0 -1
vn 0 0 -1
vn 0 0 -1
vn 0 0 -1
vn 0 0 -1
vn 0 0 -1
vn 0 0 -1
vn 0 0 -1
vn 0 0 -1
vn 0 0 -1
vn 0 0 -1
vn 0.7071067690849304 -0.7071067690849304 0
vn 0.7071067690849304 -0.7071067690849304 0
vn 0.7071067690849304 -0.7071067690849304 0
vn 0.7071067690849304 -0.7071067690849304 0
vn 0.7071067690849304 -0.7071067690849304 0
vn 0.7071067690849304 -0.7071067690849304 0
vn 1 0 0
vn 1 0 0
vn 1 0 0
vn 1 0 0
vn 1 0 0
vn 1 0 0
vn 0 -1 0
vn 0 -1 0
vn 0 -1 0
vn 0 -1 0
vn 0 -1 0
vn 0 -1 0
vn 0 -1 0
vn -0.720571756362915 0.6933803558349609 0
vn -0.720571756362915 0.6933803558349609 0
vn -0.720571756362915 0.6933803558349609 0
vn -0.720571756362915 0.6933803558349609 0
vn -0.720571756362915 0.6933803558349609 0
vn -0.720571756362915 0.6933803558349609 0
vn 0 1 0
vn 0 1 0
vn 0 1 0
vn 0 1 0
vn 0 1 0
vn 0 1 0
vn 0 1 0
vn 0 1 0
vn -1 0 0
vn -1 0 0
vn -1 0 0
vn -1 0 0
vn -1 0 0
vn -1 0 0
vn -1 0 0
vn -1 0 0
vn 0 -1 0
vn 0 -1 0
vn 0 -1 0
vn 0 -1 0
vn 0 -1 0
vn 0 -1 0
vn 0 -1 0
vn 0.7058759331703186 -0.7083354592323303 0
vn 0.7058759331703186 -0.7083354592323303 0
vn 0.7058759331703186 -0.7083354592323303 0
vn 0.7058759331703186 -0.7083354592323303 0
vn 0.7058759331703186 -0.7083354592323303 0
vn 0.7058759331703186 -0.7083354592323303 0
vn 0.7058759331703186 -0.7083354592323303 0
vn 1 0 0
vn 1 0 0
vn 1 0 0
vn 1 0 0
vn 1 0 0
vn 1 0 0
vn 1 0 0
vn 1 0 0
vn 0 1 0
vn 0 1 0
vn 0 1 0
vn 0 1 0
vn 0 1 0
vn 0 1 0
vn 0 1 0
vn -0.9999953508377075 0.00305109191685915 0
vn -0.9999953508377075 0.00305109191685915 0
vn -0.9999953508377075 0.00305109191685915 0
vn -0.9999953508377075 0.00305109191685915 0
vn -0.9999953508377075 0.00305109191685915 0
vn -0.9999953508377075 0.00305109191685915 0
vn -0.9999953508377075 0.00305109191685915 0
vn -0.9999953508377075 0.00305109191685915 0
f 19/19/19 22/22/22 18/18/18
f 22/22/22 16/16/16 17/17/17
f 19/19/19 16/16/16 22/22/22
f 21/21/21 22/22/22 17/17/17
f 3/3/3 21/21/21 13/13/13
f 13/13/13 21/21/21 17/17/17
f 2/2/2 3/3/3 13/13/13 14/14/14
f 7/7/7 10/10/10 6/6/6
f 12/12/12 9/9/9 10/10/10
f 11/11/11 12/12/12 7/7/7
f 10/10/10 7/7/7 12/12/12
f 8/8/8 15/15/15 11/11/11
f 7/7/7 8/8/8 11/11/11
f 20/20/20 15/15/15 8/8/8
f 14/14/14 15/15/15 2/2/2
f 1/1/1 2/2/2 15/15/15
f 20/20/20 5/5/5 15/15/15
f 15/15/15 5/5/5 1/1/1
f 20/20/20 4/4/4 5/5/5
f 41/41/41 40/40/40 44/44/44
f 44/44/44 39/39/39 38/38/38
f 41/41/41 44/44/44 38/38/38
f 43/43/43 39/39/39 44/44/44
f 25/25/25 35/35/35 43/43/43
f 35/35/35 39/39/39 43/43/43
f 24/24/24 36/36/36 35/35/35 25/25/25
f 29/29/29 28/28/28 32/32/32
f 34/34/34 32/32/32 31/31/31
f 33/33/33 29/29/29 34/34/34
f 32/32/32 34/34/34 29/29/29
f 30/30/30 33/33/33 37/37/37
f 29/29/29 33/33/33 30/30/30
f 42/42/42 30/30/30 37/37/37
f 36/36/36 24/24/24 37/37/37
f 23/23/23 37/37/37 24/24/24
f 42/42/42 37/37/37 27/27/27
f 37/37/37 23/23/23 27/27/27
f 42/42/42 27/27/27 26/26/26
f 50/50/50 46/46/46 45/45/45 49/49/49
f 49/49/49 47/47/47 48/48/48 50/50/50
f 55/55/55 52/52/52 51/51/51 56/56/56
f 56/56/56 53/53/53 54/54/54 55/55/55
f 57/57/57 62/62/62 61/61/61 58/58/58
f 62/62/62 63/63/63 61/61/61
f 63/63/63 60/60/60 61/61/61
f 59/59/59 63/63/63 62/62/62
f 68/68/68 64/64/64 66/66/66 69/69/69
f 65/65/65 68/68/68 69/69/69 67/67/67
f 76/76/76 77/77/77 73/73/73 74/74/74
f 76/76/76 74/74/74 71/71/71
f 75/75/75 76/76/76 70/70/70
f 77/77/77 75/75/75 72/72/72
f 75/75/75 77/77/77 76/76/76
f 84/84/84 78/78/78 83/83/83
f 84/84/84 82/82/82 79/79/79
f 85/85/85 84/84/84 83/83/83
f 84/84/84 85/85/85 82/82/82
f 85/85/85 81/81/81 82/82/82
f 80/80/80 85/85/85 83/83/83
f 91/91/91 92/92/92 86/86/86
f 90/90/90 87/87/87 92/92/92
f 91/91/91 88/88/88 89/89/89 90/90/90
f 92/92/92 91/91/91 90/90/90
f 94/94/94 93/93/93 97/97/97 99/99/99
f 97/97/97 98/98/98 99/99/99
f 98/98/98 96/96/96 99/99/99
f 95/95/95 98/98/98 97/97/97
f 106/106/106 100/100/100 105/105/105
f 106/106/106 104/104/104 101/101/101
f 107/107/107 106/106/106 105/105/105
f 106/106/106 107/107/107 104/104/104
f 107/107/107 103/103/103 104/104/104
f 102/102/102 107/107/107 105/105/105
f 113/113/113 114/114/114 108/108/108
f 112/112/112 109/109/109 114/114/114
f 110/110/110 111/111/111 112/112/112 113/113/113
f 114/114/114 113/113/113 112/112/112
f 119/119/119 122/122/122 116/116/116 115/115/115
f 122/122/122 119/119/119 120/120/120 121/121/121
f 117/117/117 118/118/118 121/121/121 120/120/120
