# Rhino

g object_1
v 10.55398559570312 6.436623096466064 1
v 10.55398559570312 7.463165760040283 1
v 15.13705444335938 6.436623096466064 1
v 15.13705444335938 7.463165760040283 1
v 12.84552001953125 6.436623096466064 1
v 10.55398559570312 6.949894428253174 1
v 12.84552001953125 7.463165760040283 1
v 15.13705444335938 6.949894428253174 1
v 10.55398559570312 6.436623096466064 0
v 10.55398559570312 7.463165760040283 0
v 15.13705444335938 6.436623096466064 0
v 15.13705444335938 7.463165760040283 0
v 12.84552001953125 6.436623096466064 0
v 10.55398559570312 6.949894428253174 0
v 12.84552001953125 7.463165760040283 0
v 15.13705444335938 6.949894428253174 0
v 10.55398559570312 6.436623096466064 0
v 10.55398559570312 6.436623096466064 1
v 15.13705444335938 6.436623096466064 0
v 15.13705444335938 6.436623096466064 1
v 12.84552001953125 6.436623096466064 1
v 12.84552001953125 6.436623096466064 0
v 15.13705444335938 6.436623096466064 0.5
v 10.55398559570312 6.436623096466064 0.5
v 15.13705444335938 6.436623096466064 0
v 15.13705444335938 6.436623096466064 1
v 15.13705444335938 7.463165760040283 0
v 15.13705444335938 7.463165760040283 1
v 15.13705444335938 6.949894428253174 1
v 15.13705444335938 6.949894428253174 0
v 15.13705444335938 6.436623096466064 0.5
v 15.13705444335938 7.463165760040283 0.5
v 15.13705444335938 7.463165760040283 0
v 15.13705444335938 7.463165760040283 1
v 10.55398559570312 7.463165760040283 0
v 10.55398559570312 7.463165760040283 1
v 12.84552001953125 7.463165760040283 1
v 12.84552001953125 7.463165760040283 0
v 15.13705444335938 7.463165760040283 0.5
v 10.55398559570312 7.463165760040283 0.5
v 10.55398559570312 7.463165760040283 0
v 10.55398559570312 7.463165760040283 1
v 10.55398559570312 6.436623096466064 0
v 10.55398559570312 6.436623096466064 1
v 10.55398559570312 6.949894428253174 1
v 10.55398559570312 6.949894428253174 0
v 10.55398559570312 6.436623096466064 0.5
v 10.55398559570312 7.463165760040283 0.5
vt 0.604805588722229 0
vt 0.4041802585124969 0
vt 0.604805588722229 0.9007800817489624
vt 0.4041802585124969 0.9007800817489624
vt 0.604805588722229 0.4503900408744812
vt 0.5044929385185242 0
vt 0.4041802585124969 0.4503900408744812
vt 0.5044929385185242 0.9007800817489624
vt 0.4027154147624969 0
vt 0.2020901292562485 0
vt 0.4027154147624969 0.9007800817489624
vt 0.2020901292562485 0.9007800817489624
vt 0.4027154147624969 0.4503900408744812
vt 0.3024027943611145 0
vt 0.2020901292562485 0.4503900408744812
vt 0.3024027943611145 0.9007800817489624
vt 0.99853515625 0
vt 0.8031352162361145 0
vt 0.99853515625 0.9007800817489624
vt 0.8031352162361145 0.9007800817489624
vt 0.8031352162361145 0.4503900408744812
vt 0.99853515625 0.4503900408744812
vt 0.9008351564407349 0.9007800817489624
vt 0.9008351564407349 0
vt 0 0.4511224627494812
vt 0 0.6479872465133667
vt 0.2006252855062485 0.4511224627494812
vt 0.2006252855062485 0.6479872465133667
vt 0.1003126427531242 0.6479872465133667
vt 0.1003126427531242 0.4511224627494812
vt 0 0.5495548844337463
vt 0.2006252855062485 0.5495548844337463
vt 0.8016703724861145 0
vt 0.606270432472229 0
vt 0.8016703724861145 0.9007800817489624
vt 0.606270432472229 0.9007800817489624
vt 0.606270432472229 0.4503900408744812
vt 0.8016703724861145 0.4503900408744812
vt 0.7039703726768494 0
vt 0.7039703726768494 0.9007800817489624
vt 0 0
vt 0 0.1968647986650467
vt 0.2006252855062485 0
vt 0.2006252855062485 0.1968647986650467
vt 0.1003126427531242 0.1968647986650467
vt 0.1003126427531242 0
vt 0.2006252855062485 0.09843239933252335
vt 0 0.09843239933252335
vn 0 0 1
vn 0 0 1
vn 0 0 1
vn 0 0 1
vn 0 0 1
vn 0 0 1
vn 0 0 1
vn 0 0 1
vn 0 0 -1
vn 0 0 -1
vn 0 0 -1
vn 0 0 -1
vn 0 0 -1
vn 0 0 -1
vn 0 0 -1
vn 0 0 -1
vn 0 -1 0
vn 0 -1 0
vn 0 -1 0
vn 0 -1 0
vn 0 -1 0
vn 0 -1 0
vn 0 -1 0
vn 0 -1 0
vn 1 0 0
vn 1 0 0
vn 1 0 0
vn 1 0 0
vn 1 0 0
vn 1 0 0
vn 1 0 0
vn 1 0 0
vn 0 1 0
vn 0 1 0
vn 0 1 0
vn 0 1 0
vn 0 1 0
vn 0 1 0
vn 0 1 0
vn 0 1 0
vn -1 0 0
vn -1 0 0
vn -1 0 0
vn -1 0 0
vn -1 0 0
vn -1 0 0
vn -1 0 0
vn -1 0 0
f 6/6/6 1/1/1 5/5/5
f 6/6/6 7/7/7 2/2/2
f 8/8/8 6/6/6 5/5/5
f 6/6/6 8/8/8 7/7/7
f 8/8/8 4/4/4 7/7/7
f 3/3/3 8/8/8 5/5/5
f 13/13/13 14/14/14 15/15/15
f 14/14/14 10/10/10 15/15/15
f 13/13/13 9/9/9 14/14/14
f 16/16/16 11/11/11 13/13/13
f 16/16/16 15/15/15 12/12/12
f 13/13/13 15/15/15 16/16/16
f 24/24/24 17/17/17 22/22/22
f 24/24/24 21/21/21 18/18/18
f 23/23/23 24/24/24 22/22/22
f 24/24/24 23/23/23 21/21/21
f 23/23/23 20/20/20 21/21/21
f 19/19/19 23/23/23 22/22/22
f 31/31/31 25/25/25 30/30/30
f 31/31/31 29/29/29 26/26/26
f 32/32/32 31/31/31 30/30/30
f 31/31/31 32/32/32 29/29/29
f 32/32/32 28/28/28 29/29/29
f 27/27/27 32/32/32 30/30/30
f 39/39/39 33/33/33 38/38/38
f 39/39/39 37/37/37 34/34/34
f 40/40/40 39/39/39 38/38/38 35/35/35
f 39/39/39 40/40/40 37/37/37
f 40/40/40 36/36/36 37/37/37
f 48/48/48 41/41/41 46/46/46
f 48/48/48 45/45/45 42/42/42
f 47/47/47 48/48/48 46/46/46
f 48/48/48 47/47/47 45/45/45
f 47/47/47 44/44/44 45/45/45
f 43/43/43 47/47/47 46/46/46
g object_2
v 10.55398559570312 7.692513942718506 1
v 10.55398559570312 8.719057083129883 1
v 15.13705444335938 7.692513942718506 1
v 15.13705444335938 8.719057083129883 1
v 12.84552001953125 7.692513942718506 1
v 10.55398559570312 8.205785751342773 1
v 12.84552001953125 8.719057083129883 1
v 15.13705444335938 8.205785751342773 1
v 10.55398559570312 7.692513942718506 0
v 10.55398559570312 8.719057083129883 0
v 15.13705444335938 7.692513942718506 0
v 15.13705444335938 8.719057083129883 0
v 12.84552001953125 7.692513942718506 0
v 10.55398559570312 8.205785751342773 0
v 12.84552001953125 8.719057083129883 0
v 15.13705444335938 8.205785751342773 0
v 10.55398559570312 7.692513942718506 0
v 10.55398559570312 7.692513942718506 1
v 15.13705444335938 7.692513942718506 0
v 15.13705444335938 7.692513942718506 1
v 12.84552001953125 7.692513942718506 1
v 12.84552001953125 7.692513942718506 0
v 15.13705444335938 7.692513942718506 0.5
v 10.55398559570312 7.692513942718506 0.5
v 15.13705444335938 7.692513942718506 0
v 15.13705444335938 7.692513942718506 1
v 15.13705444335938 8.719057083129883 0
v 15.13705444335938 8.719057083129883 1
v 15.13705444335938 8.205785751342773 1
v 15.13705444335938 8.205785751342773 0
v 15.13705444335938 7.692513942718506 0.5
v 15.13705444335938 8.719057083129883 0.5
v 15.13705444335938 8.719057083129883 0
v 15.13705444335938 8.719057083129883 1
v 10.55398559570312 8.719057083129883 0
v 10.55398559570312 8.719057083129883 1
v 12.84552001953125 8.719057083129883 1
v 12.84552001953125 8.719057083129883 0
v 15.13705444335938 8.719057083129883 0.5
v 10.55398559570312 8.719057083129883 0.5
v 10.55398559570312 8.719057083129883 0
v 10.55398559570312 8.719057083129883 1
v 10.55398559570312 7.692513942718506 0
v 10.55398559570312 7.692513942718506 1
v 10.55398559570312 8.205785751342773 1
v 10.55398559570312 8.205785751342773 0
v 10.55398559570312 7.692513942718506 0.5
v 10.55398559570312 8.719057083129883 0.5
vt 0.604805588722229 0
vt 0.4041802585124969 0
vt 0.604805588722229 0.9007800817489624
vt 0.4041802585124969 0.9007800817489624
vt 0.604805588722229 0.4503900408744812
vt 0.5044929385185242 0
vt 0.4041802585124969 0.4503900408744812
vt 0.5044929385185242 0.9007800817489624
vt 0.4027154147624969 0
vt 0.2020901292562485 0
vt 0.4027154147624969 0.9007800817489624
vt 0.2020901292562485 0.9007800817489624
vt 0.4027154147624969 0.4503900408744812
vt 0.3024027943611145 0
vt 0.2020901292562485 0.4503900408744812
vt 0.3024027943611145 0.9007800817489624
vt 0.99853515625 0
vt 0.8031352162361145 0
vt 0.99853515625 0.9007800817489624
vt 0.8031352162361145 0.9007800817489624
vt 0.8031352162361145 0.4503900408744812
vt 0.99853515625 0.4503900408744812
vt 0.9008351564407349 0.9007800817489624
vt 0.9008351564407349 0
vt 0 0.4511224627494812
vt 0 0.6479872465133667
vt 0.2006252855062485 0.4511224627494812
vt 0.2006252855062485 0.6479872465133667
vt 0.1003126427531242 0.6479872465133667
vt 0.1003126427531242 0.4511224627494812
vt 0 0.5495548844337463
vt 0.2006252855062485 0.5495548844337463
vt 0.8016703724861145 0
vt 0.606270432472229 0
vt 0.8016703724861145 0.9007800817489624
vt 0.606270432472229 0.9007800817489624
vt 0.606270432472229 0.4503900408744812
vt 0.8016703724861145 0.4503900408744812
vt 0.7039703726768494 0
vt 0.7039703726768494 0.9007800817489624
vt 0 0
vt 0 0.1968647986650467
vt 0.2006252855062485 0
vt 0.2006252855062485 0.1968647986650467
vt 0.1003126427531242 0.1968647986650467
vt 0.1003126427531242 0
vt 0.2006252855062485 0.09843239933252335
vt 0 0.09843239933252335
vn 0 0 1
vn 0 0 1
vn 0 0 1
vn 0 0 1
vn 0 0 1
vn 0 0 1
vn 0 0 1
vn 0 0 1
vn 0 0 -1
vn 0 0 -1
vn 0 0 -1
vn 0 0 -1
vn 0 0 -1
vn 0 0 -1
vn 0 0 -1
vn 0 0 -1
vn 0 -1 0
vn 0 -1 0
vn 0 -1 0
vn 0 -1 0
vn 0 -1 0
vn 0 -1 0
vn 0 -1 0
vn 0 -1 0
vn 1 0 0
vn 1 0 0
vn 1 0 0
vn 1 0 0
vn 1 0 0
vn 1 0 0
vn 1 0 0
vn 1 0 0
vn 0 1 0
vn 0 1 0
vn 0 1 0
vn 0 1 0
vn 0 1 0
vn 0 1 0
vn 0 1 0
vn 0 1 0
vn -1 0 0
vn -1 0 0
vn -1 0 0
vn -1 0 0
vn -1 0 0
vn -1 0 0
vn -1 0 0
vn -1 0 0
f 54/54/54 49/49/49 53/53/53
f 54/54/54 55/55/55 50/50/50
f 56/56/56 54/54/54 53/53/53
f 54/54/54 56/56/56 55/55/55
f 56/56/56 52/52/52 55/55/55
f 51/51/51 56/56/56 53/53/53
f 61/61/61 62/62/62 63/63/63
f 62/62/62 58/58/58 63/63/63
f 61/61/61 57/57/57 62/62/62
f 64/64/64 59/59/59 61/61/61
f 64/64/64 63/63/63 60/60/60
f 61/61/61 63/63/63 64/64/64
f 72/72/72 65/65/65 70/70/70
f 72/72/72 69/69/69 66/66/66
f 71/71/71 72/72/72 70/70/70
f 72/72/72 71/71/71 69/69/69
f 71/71/71 68/68/68 69/69/69
f 67/67/67 71/71/71 70/70/70
f 79/79/79 73/73/73 78/78/78
f 79/79/79 77/77/77 74/74/74
f 80/80/80 79/79/79 78/78/78
f 79/79/79 80/80/80 77/77/77
f 80/80/80 76/76/76 77/77/77
f 75/75/75 80/80/80 78/78/78
f 87/87/87 81/81/81 86/86/86
f 87/87/87 85/85/85 82/82/82
f 88/88/88 87/87/87 86/86/86 83/83/83
f 87/87/87 88/88/88 85/85/85
f 88/88/88 84/84/84 85/85/85
f 96/96/96 89/89/89 94/94/94
f 96/96/96 93/93/93 90/90/90
f 95/95/95 96/96/96 94/94/94
f 96/96/96 95/95/95 93/93/93
f 95/95/95 92/92/92 93/93/93
f 91/91/91 95/95/95 94/94/94
g object_3
v 10.55398559570312 8.939892768859863 1
v 10.55398559570312 9.966435432434082 1
v 15.13705444335938 8.939892768859863 1
v 15.13705444335938 9.966435432434082 1
v 12.84552001953125 8.939892768859863 1
v 10.55398559570312 9.453164100646973 1
v 12.84552001953125 9.966435432434082 1
v 15.13705444335938 9.453164100646973 1
v 10.55398559570312 8.939892768859863 0
v 10.55398559570312 9.966435432434082 0
v 15.13705444335938 8.939892768859863 0
v 15.13705444335938 9.966435432434082 0
v 12.84552001953125 8.939892768859863 0
v 10.55398559570312 9.453164100646973 0
v 12.84552001953125 9.966435432434082 0
v 15.13705444335938 9.453164100646973 0
v 10.55398559570312 8.939892768859863 0
v 10.55398559570312 8.939892768859863 1
v 15.13705444335938 8.939892768859863 0
v 15.13705444335938 8.939892768859863 1
v 12.84552001953125 8.939892768859863 1
v 12.84552001953125 8.939892768859863 0
v 15.13705444335938 8.939892768859863 0.5
v 10.55398559570312 8.939892768859863 0.5
v 15.13705444335938 8.939892768859863 0
v 15.13705444335938 8.939892768859863 1
v 15.13705444335938 9.966435432434082 0
v 15.13705444335938 9.966435432434082 1
v 15.13705444335938 9.453164100646973 1
v 15.13705444335938 9.453164100646973 0
v 15.13705444335938 8.939892768859863 0.5
v 15.13705444335938 9.966435432434082 0.5
v 15.13705444335938 9.966435432434082 0
v 15.13705444335938 9.966435432434082 1
v 10.55398559570312 9.966435432434082 0
v 10.55398559570312 9.966435432434082 1
v 12.84552001953125 9.966435432434082 1
v 12.84552001953125 9.966435432434082 0
v 15.13705444335938 9.966435432434082 0.5
v 10.55398559570312 9.966435432434082 0.5
v 10.55398559570312 9.966435432434082 0
v 10.55398559570312 9.966435432434082 1
v 10.55398559570312 8.939892768859863 0
v 10.55398559570312 8.939892768859863 1
v 10.55398559570312 9.453164100646973 1
v 10.55398559570312 9.453164100646973 0
v 10.55398559570312 8.939892768859863 0.5
v 10.55398559570312 9.966435432434082 0.5
vt 0.604805588722229 0
vt 0.4041802585124969 0
vt 0.604805588722229 0.9007800817489624
vt 0.4041802585124969 0.9007800817489624
vt 0.604805588722229 0.4503900408744812
vt 0.5044929385185242 0
vt 0.4041802585124969 0.4503900408744812
vt 0.5044929385185242 0.9007800817489624
vt 0.4027154147624969 0
vt 0.2020901292562485 0
vt 0.4027154147624969 0.9007800817489624
vt 0.2020901292562485 0.9007800817489624
vt 0.4027154147624969 0.4503900408744812
vt 0.3024027943611145 0
vt 0.2020901292562485 0.4503900408744812
vt 0.3024027943611145 0.9007800817489624
vt 0.99853515625 0
vt 0.8031352162361145 0
vt 0.99853515625 0.9007800817489624
vt 0.8031352162361145 0.9007800817489624
vt 0.8031352162361145 0.4503900408744812
vt 0.99853515625 0.4503900408744812
vt 0.9008351564407349 0.9007800817489624
vt 0.9008351564407349 0
vt 0 0.4511224627494812
vt 0 0.6479872465133667
vt 0.2006252855062485 0.4511224627494812
vt 0.2006252855062485 0.6479872465133667
vt 0.1003126427531242 0.6479872465133667
vt 0.1003126427531242 0.4511224627494812
vt 0 0.5495548844337463
vt 0.2006252855062485 0.5495548844337463
vt 0.8016703724861145 0
vt 0.606270432472229 0
vt 0.8016703724861145 0.9007800817489624
vt 0.606270432472229 0.9007800817489624
vt 0.606270432472229 0.4503900408744812
vt 0.8016703724861145 0.4503900408744812
vt 0.7039703726768494 0
vt 0.7039703726768494 0.9007800817489624
vt 0 0
vt 0 0.1968647986650467
vt 0.2006252855062485 0
vt 0.2006252855062485 0.1968647986650467
vt 0.1003126427531242 0.1968647986650467
vt 0.1003126427531242 0
vt 0.2006252855062485 0.09843239933252335
vt 0 0.09843239933252335
vn 0 0 1
vn 0 0 1
vn 0 0 1
vn 0 0 1
vn 0 0 1
vn 0 0 1
vn 0 0 1
vn 0 0 1
vn 0 0 -1
vn 0 0 -1
vn 0 0 -1
vn 0 0 -1
vn 0 0 -1
vn 0 0 -1
vn 0 0 -1
vn 0 0 -1
vn 0 -1 0
vn 0 -1 0
vn 0 -1 0
vn 0 -1 0
vn 0 -1 0
vn 0 -1 0
vn 0 -1 0
vn 0 -1 0
vn 1 0 0
vn 1 0 0
vn 1 0 0
vn 1 0 0
vn 1 0 0
vn 1 0 0
vn 1 0 0
vn 1 0 0
vn 0 1 0
vn 0 1 0
vn 0 1 0
vn 0 1 0
vn 0 1 0
vn 0 1 0
vn 0 1 0
vn 0 1 0
vn -1 0 0
vn -1 0 0
vn -1 0 0
vn -1 0 0
vn -1 0 0
vn -1 0 0
vn -1 0 0
vn -1 0 0
f 102/102/102 97/97/97 101/101/101
f 102/102/102 103/103/103 98/98/98
f 104/104/104 102/102/102 101/101/101
f 102/102/102 104/104/104 103/103/103
f 104/104/104 100/100/100 103/103/103
f 99/99/99 104/104/104 101/101/101
f 109/109/109 110/110/110 111/111/111
f 110/110/110 106/106/106 111/111/111
f 109/109/109 105/105/105 110/110/110
f 112/112/112 107/107/107 109/109/109
f 112/112/112 111/111/111 108/108/108
f 109/109/109 111/111/111 112/112/112
f 120/120/120 113/113/113 118/118/118
f 120/120/120 117/117/117 114/114/114
f 119/119/119 120/120/120 118/118/118
f 120/120/120 119/119/119 117/117/117
f 119/119/119 116/116/116 117/117/117
f 115/115/115 119/119/119 118/118/118
f 127/127/127 121/121/121 126/126/126
f 127/127/127 125/125/125 122/122/122
f 128/128/128 127/127/127 126/126/126
f 127/127/127 128/128/128 125/125/125
f 128/128/128 124/124/124 125/125/125
f 123/123/123 128/128/128 126/126/126
f 135/135/135 129/129/129 134/134/134
f 135/135/135 133/133/133 130/130/130
f 136/136/136 135/135/135 134/134/134 131/131/131
f 135/135/135 136/136/136 133/133/133
f 136/136/136 132/132/132 133/133/133
f 144/144/144 137/137/137 142/142/142
f 144/144/144 141/141/141 138/138/138
f 143/143/143 144/144/144 142/142/142
f 144/144/144 143/143/143 141/141/141
f 143/143/143 140/140/140 141/141/141
f 139/139/139 143/143/143 142/142/142
