# Rhino

g object_1
v -5.430468082427979 9.992840766906738 1
v -7.715751171112061 9.992840766906738 1
v -10.0010347366333 9.992840766906738 1
v -5.430468082427979 8.970478057861328 1
v -5.430468082427979 9.481659889221191 1
v -8.97007942199707 8.970478057861328 1
v -7.200273990631104 8.970478057861328 1
v -8.97007942199707 7.467001914978027 1
v -8.97007942199707 8.21873950958252 1
v -5.430468082427979 7.467001914978027 1
v -7.200273990631104 7.467001914978027 1
v -5.430468082427979 6.444638252258301 1
v -5.430468082427979 6.955820083618164 1
v -9.996738433837891 6.444638252258301 1
v -7.713603496551514 6.444638252258301 1
v -9.998887062072754 8.21873950958252 1
v -5.430468082427979 9.992840766906738 0
v -7.715751171112061 9.992840766906738 0
v -10.0010347366333 9.992840766906738 0
v -5.430468082427979 8.970478057861328 0
v -5.430468082427979 9.481659889221191 0
v -8.97007942199707 8.970478057861328 0
v -7.200273990631104 8.970478057861328 0
v -8.97007942199707 7.467001914978027 0
v -8.97007942199707 8.21873950958252 0
v -5.430468082427979 7.467001914978027 0
v -7.200273990631104 7.467001914978027 0
v -5.430468082427979 6.444638252258301 0
v -5.430468082427979 6.955820083618164 0
v -9.996738433837891 6.444638252258301 0
v -7.713603496551514 6.444638252258301 0
v -9.998887062072754 8.21873950958252 0
v -10.0010347366333 9.992840766906738 0
v -10.0010347366333 9.992840766906738 1
v -9.996738433837891 6.444638252258301 0
v -9.996738433837891 6.444638252258301 1
v -9.998887062072754 8.21873950958252 0
v -9.998887062072754 8.21873950958252 1
v -9.996738433837891 6.444638252258301 0
v -9.996738433837891 6.444638252258301 1
v -5.430468082427979 6.444638252258301 0
v -5.430468082427979 6.444638252258301 1
v -7.713603496551514 6.444638252258301 1
v -7.713603496551514 6.444638252258301 0
v -5.430468082427979 6.444638252258301 0.5
v -5.430468082427979 6.444638252258301 0
v -5.430468082427979 6.444638252258301 1
v -5.430468082427979 7.467001914978027 0
v -5.430468082427979 7.467001914978027 1
v -5.430468082427979 6.955820083618164 1
v -5.430468082427979 6.955820083618164 0
v -5.430468082427979 6.444638252258301 0.5
v -5.430468082427979 7.467001914978027 0.5
v -5.430468082427979 7.467001914978027 0
v -5.430468082427979 7.467001914978027 1
v -8.97007942199707 7.467001914978027 0
v -8.97007942199707 7.467001914978027 1
v -7.200273990631104 7.467001914978027 1
v -7.200273990631104 7.467001914978027 0
v -5.430468082427979 7.467001914978027 0.5
v -8.97007942199707 7.467001914978027 0
v -8.97007942199707 7.467001914978027 1
v -8.97007942199707 8.970478057861328 0
v -8.97007942199707 8.970478057861328 1
v -8.97007942199707 8.21873950958252 1
v -8.97007942199707 8.21873950958252 0
v -8.97007942199707 8.970478057861328 0
v -8.97007942199707 8.970478057861328 1
v -5.430468082427979 8.970478057861328 0
v -5.430468082427979 8.970478057861328 1
v -7.200273990631104 8.970478057861328 1
v -7.200273990631104 8.970478057861328 0
v -5.430468082427979 8.970478057861328 0.5
v -5.430468082427979 8.970478057861328 0
v -5.430468082427979 8.970478057861328 1
v -5.430468082427979 9.992840766906738 0
v -5.430468082427979 9.992840766906738 1
v -5.430468082427979 9.481659889221191 1
v -5.430468082427979 9.481659889221191 0
v -5.430468082427979 8.970478057861328 0.5
v -5.430468082427979 9.992840766906738 0.5
v -5.430468082427979 9.992840766906738 0
v -5.430468082427979 9.992840766906738 1
v -10.0010347366333 9.992840766906738 0
v -10.0010347366333 9.992840766906738 1
v -7.715751171112061 9.992840766906738 1
v -7.715751171112061 9.992840766906738 0
v -5.430468082427979 9.992840766906738 0.5
vt 0.6499594449996948 0.450881153345108
vt 0.6499594449996948 0.2276726812124252
vt 0.6499594449996948 0.004464170429855585
vt 0.7494021058082581 0.450881153345108
vt 0.6996808052062988 0.450881153345108
vt 0.7494021058082581 0.1051597371697426
vt 0.7494021058082581 0.2780204713344574
vt 0.8956412672996521 0.1051597371697426
vt 0.8225216865539551 0.1051597371697426
vt 0.8956412672996521 0.450881153345108
vt 0.8956412672996521 0.2780204713344574
vt 0.9950839281082153 0.450881153345108
vt 0.9453625679016113 0.450881153345108
vt 0.9950839281082153 0.004883734975010157
vt 0.9950839281082153 0.227882444858551
vt 0.8225216865539551 0.004673952702432871
vt 0.2964676916599274 0.8423035740852356
vt 0.2964676916599274 0.6198131442070007
vt 0.2964676916599274 0.3973226845264435
vt 0.3959103226661682 0.8423035740852356
vt 0.3461889922618866 0.8423035740852356
vt 0.3959103226661682 0.4976943135261536
vt 0.3959103226661682 0.6699989438056946
vt 0.5421494841575623 0.4976943135261536
vt 0.4690299034118652 0.4976943135261536
vt 0.5421494841575623 0.8423035740852356
vt 0.5421494841575623 0.6699989438056946
vt 0.6415921449661255 0.8423035740852356
vt 0.5918707847595215 0.8423035740852356
vt 0.6415921449661255 0.39774090051651
vt 0.6415921449661255 0.6200222373008728
vt 0.4690299034118652 0.3975317776203156
vt 0 0.09767214208841324
vt 0 0.1938794404268265
vt 0.3465608358383179 0.09767214208841324
vt 0.3465608358383179 0.1938794404268265
vt 0.1732804179191589 0.09767214208841324
vt 0.1732804179191589 0.1938794404268265
vt 0 0.2952007353305817
vt 0 0.3914080262184143
vt 0.4459974467754364 0.2952007353305817
vt 0.4459974467754364 0.3914080262184143
vt 0.2229987233877182 0.3914080262184143
vt 0.2229987233877182 0.2952007353305817
vt 0.4459974467754364 0.3433043658733368
vt 0.4209262430667877 0.1953442841768265
vt 0.3232541084289551 0.1953442841768265
vt 0.4209262430667877 0.2937358915805817
vt 0.3232541084289551 0.2937358915805817
vt 0.3232541084289551 0.2445400804281235
vt 0.4209262430667877 0.2445400804281235
vt 0.3720901906490326 0.1953442841768265
vt 0.3720901906490326 0.2937358915805817
vt 0 0
vt 0 0.09620729833841324
vt 0.3457214534282684 0
vt 0.3457214534282684 0.09620729833841324
vt 0.1728607267141342 0.09620729833841324
vt 0.1728607267141342 0
vt 0 0.04810364916920662
vt 0.1938794404268265 0.3928728699684143
vt 0.09767214208841324 0.3928728699684143
vt 0.1938794404268265 0.5397205948829651
vt 0.09767214208841324 0.5397205948829651
vt 0.09767214208841324 0.4662967324256897
vt 0.1938794404268265 0.4662967324256897
vt 0.2915515899658203 0.3928728699684143
vt 0.1953442841768265 0.3928728699684143
vt 0.2915515899658203 0.7385942935943604
vt 0.1953442841768265 0.7385942935943604
vt 0.1953442841768265 0.5657336115837097
vt 0.2915515899658203 0.5657336115837097
vt 0.243447944521904 0.7385942935943604
vt 0.09767214208841324 0.1953442841768265
vt 0 0.1953442841768265
vt 0.09767214208841324 0.2937358915805817
vt 0 0.2937358915805817
vt 0 0.2445400804281235
vt 0.09767214208841324 0.2445400804281235
vt 0.04883607104420662 0.1953442841768265
vt 0.04883607104420662 0.2937358915805817
vt 0.09620729833841324 0.3928728699684143
vt 0 0.3928728699684143
vt 0.09620729833841324 0.8392899036407471
vt 0 0.8392899036407471
vt 0 0.6160813570022583
vt 0.09620729833841324 0.6160813570022583
vt 0.04810364916920662 0.3928728699684143
vn 0 0 1
vn 0 0 1
vn 0 0 1
vn 0 0 1
vn 0 0 1
vn 0 0 1
vn 0 0 1
vn 0 0 1
vn 0 0 1
vn 0 0 1
vn 0 0 1
vn 0 0 1
vn 0 0 1
vn 0 0 1
vn 0 0 1
vn 0 0 1
vn 0 0 -1
vn 0 0 -1
vn 0 0 -1
vn 0 0 -1
vn 0 0 -1
vn 0 0 -1
vn 0 0 -1
vn 0 0 -1
vn 0 0 -1
vn 0 0 -1
vn 0 0 -1
vn 0 0 -1
vn 0 0 -1
vn 0 0 -1
vn 0 0 -1
vn 0 0 -1
vn -0.9999992847442627 -0.001210652873851359 0
vn -0.9999992847442627 -0.001210652873851359 0
vn -0.9999992847442627 -0.001210652873851359 0
vn -0.9999992847442627 -0.001210652873851359 0
vn -0.9999992847442627 -0.001210652873851359 0
vn -0.9999992847442627 -0.001210652873851359 0
vn 0 -1 0
vn 0 -1 0
vn 0 -1 0
vn 0 -1 0
vn 0 -1 0
vn 0 -1 0
vn 0 -1 0
vn 1 0 0
vn 1 0 0
vn 1 0 0
vn 1 0 0
vn 1 0 0
vn 1 0 0
vn 1 0 0
vn 1 0 0
vn 0 1 0
vn 0 1 0
vn 0 1 0
vn 0 1 0
vn 0 1 0
vn 0 1 0
vn 0 1 0
vn 1 0 0
vn 1 0 0
vn 1 0 0
vn 1 0 0
vn 1 0 0
vn 1 0 0
vn 0 -1 0
vn 0 -1 0
vn 0 -1 0
vn 0 -1 0
vn 0 -1 0
vn 0 -1 0
vn 0 -1 0
vn 1 0 0
vn 1 0 0
vn 1 0 0
vn 1 0 0
vn 1 0 0
vn 1 0 0
vn 1 0 0
vn 1 0 0
vn 0 1 0
vn 0 1 0
vn 0 1 0
vn 0 1 0
vn 0 1 0
vn 0 1 0
vn 0 1 0
f 8/8/8 16/16/16 14/14/14
f 14/14/14 15/15/15 11/11/11 8/8/8
f 9/9/9 16/16/16 8/8/8
f 6/6/6 3/3/3 16/16/16
f 2/2/2 3/3/3 6/6/6 7/7/7
f 6/6/6 16/16/16 9/9/9
f 13/13/13 11/11/11 12/12/12
f 15/15/15 12/12/12 11/11/11
f 11/11/11 13/13/13 10/10/10
f 5/5/5 7/7/7 4/4/4
f 7/7/7 5/5/5 1/1/1
f 2/2/2 7/7/7 1/1/1
f 24/24/24 30/30/30 32/32/32
f 30/30/30 24/24/24 27/27/27 31/31/31
f 25/25/25 24/24/24 32/32/32
f 22/22/22 32/32/32 19/19/19
f 18/18/18 23/23/23 22/22/22 19/19/19
f 22/22/22 25/25/25 32/32/32
f 29/29/29 28/28/28 27/27/27
f 31/31/31 27/27/27 28/28/28
f 27/27/27 26/26/26 29/29/29
f 21/21/21 20/20/20 23/23/23
f 23/23/23 17/17/17 21/21/21
f 18/18/18 17/17/17 23/23/23
f 34/34/34 33/33/33 37/37/37 38/38/38
f 35/35/35 36/36/36 38/38/38 37/37/37
f 40/40/40 39/39/39 44/44/44 43/43/43
f 44/44/44 45/45/45 43/43/43
f 45/45/45 42/42/42 43/43/43
f 41/41/41 45/45/45 44/44/44
f 52/52/52 46/46/46 51/51/51
f 52/52/52 50/50/50 47/47/47
f 53/53/53 52/52/52 51/51/51
f 52/52/52 53/53/53 50/50/50
f 53/53/53 49/49/49 50/50/50
f 48/48/48 53/53/53 51/51/51
f 59/59/59 60/60/60 54/54/54
f 58/58/58 55/55/55 60/60/60
f 56/56/56 57/57/57 58/58/58 59/59/59
f 60/60/60 59/59/59 58/58/58
f 62/62/62 61/61/61 66/66/66 65/65/65
f 63/63/63 64/64/64 65/65/65 66/66/66
f 68/68/68 67/67/67 72/72/72 71/71/71
f 72/72/72 73/73/73 71/71/71
f 73/73/73 70/70/70 71/71/71
f 69/69/69 73/73/73 72/72/72
f 80/80/80 74/74/74 79/79/79
f 80/80/80 78/78/78 75/75/75
f 81/81/81 80/80/80 79/79/79
f 80/80/80 81/81/81 78/78/78
f 81/81/81 77/77/77 78/78/78
f 76/76/76 81/81/81 79/79/79
f 87/87/87 88/88/88 82/82/82
f 86/86/86 83/83/83 88/88/88
f 84/84/84 85/85/85 86/86/86 87/87/87
f 88/88/88 87/87/87 86/86/86
