# Rhino

g object_1
v -0.3475380837917328 6.448527812957764 -0.002457534894347191
v -0.3475380837917328 6.448527812957764 0.9909170269966125
v 0.6870877146720886 6.448527812957764 -0.002457534894347191
v 0.6870877146720886 6.448527812957764 0.9909170269966125
v 0.6870877146720886 6.448527812957764 -0.002457534894347191
v 0.6870877146720886 6.448527812957764 0.9909170269966125
v 0.6870877146720886 10.00505447387695 -0.002457534894347191
v 0.6870877146720886 10.00505447387695 0.9909170269966125
v 0.6870877146720886 10.00505447387695 -0.002457534894347191
v 0.6870877146720886 10.00505447387695 0.9909170269966125
v -0.3475380837917328 10.00505447387695 -0.002457534894347191
v -0.3475380837917328 10.00505447387695 0.9909170269966125
v -0.3475380837917328 10.00505447387695 -0.002457534894347191
v -0.3475380837917328 10.00505447387695 0.9909170269966125
v -0.3475380837917328 6.448527812957764 -0.002457534894347191
v -0.3475380837917328 6.448527812957764 0.9909170269966125
v -0.3475380837917328 6.448527812957764 -0.002457534894347191
v 0.6870877146720886 6.448527812957764 -0.002457534894347191
v 0.6870877146720886 10.00505447387695 -0.002457534894347191
v -0.3475380837917328 10.00505447387695 -0.002457534894347191
v -0.3475380837917328 6.448527812957764 0.9909170269966125
v 0.6870877146720886 6.448527812957764 0.9909170269966125
v 0.6870877146720886 10.00505447387695 0.9909170269966125
v -0.3475380837917328 10.00505447387695 0.9909170269966125
vt 0 0
vt 0 0.6621764898300171
vt 0.1126760542392731 0
vt 0.1126760542392731 0.6621764898300171
vt 0.1126760542392731 0
vt 0.1126760542392731 0.6621764898300171
vt 0.5 0
vt 0.5 0.6621764898300171
vt 0.5 0
vt 0.5 0.6621764898300171
vt 0.6126760840415955 0
vt 0.6126760840415955 0.6621764898300171
vt 0.6126760840415955 0
vt 0.6126760840415955 0.6621764898300171
vt 1 0
vt 1 0.6621764898300171
vt 0.3873239457607269 1
vt 0.3873239457607269 0.6621771454811096
vt 0 0.6621771454811096
vt 0 1
vt 1 0.6621771454811096
vt 1 1
vt 0.6126760840415955 1
vt 0.6126760840415955 0.6621771454811096
vn 0 -1 0
vn 0 -1 0
vn 0 -1 0
vn 0 -1 0
vn 1 0 0
vn 1 0 0
vn 1 0 0
vn 1 0 0
vn 0 1 0
vn 0 1 0
vn 0 1 0
vn 0 1 0
vn -1 0 0
vn -1 0 0
vn -1 0 0
vn -1 0 0
vn 0 0 -1
vn 0 0 -1
vn 0 0 -1
vn 0 0 -1
vn 0 0 1
vn 0 0 1
vn 0 0 1
vn 0 0 1
f 1/1/1 3/3/3 4/4/4 2/2/2
f 5/5/5 7/7/7 8/8/8 6/6/6
f 9/9/9 11/11/11 12/12/12 10/10/10
f 13/13/13 15/15/15 16/16/16 14/14/14
f 18/18/18 17/17/17 20/20/20
f 20/20/20 19/19/19 18/18/18
f 22/22/22 24/24/24 21/21/21
f 24/24/24 22/22/22 23/23/23
